<svg xmlns="http://www.w3.org/2000/svg" xmlns:xlink="http://www.w3.org/1999/xlink" xml:space="preserve" version="1.1" style="shape-rendering:geometricPrecision;text-rendering:geometricPrecision;image-rendering:optimizeQuality;" viewBox="0 0 333.33 416.66249999999997" x="0px" y="0px" fill-rule="evenodd" clip-rule="evenodd"><g><path class="fil0" d="M124.5 73.13l113.91 0 0 -16.09c0,-8.13 -3.33,-15.52 -8.7,-20.89 -5.37,-5.37 -12.76,-8.7 -20.88,-8.7l-151.79 0c-8.13,0 -15.52,3.33 -20.89,8.7 -5.37,5.37 -8.7,12.76 -8.7,20.89l0 151.79c0,8.12 3.33,15.52 8.7,20.88 5.37,5.37 12.76,8.7 20.89,8.7l16.09 0 0 -113.91c0,-14.14 5.78,-26.98 15.08,-36.29 9.3,-9.31 22.15,-15.08 36.29,-15.08zm135.7 0l16.09 0c14.14,0 26.98,5.78 36.29,15.08 9.3,9.3 15.08,22.15 15.08,36.29l0 151.79c0,14.14 -5.78,26.98 -15.08,36.29 -9.31,9.31 -22.15,15.08 -36.29,15.08l-151.79 0c-14.14,0 -26.98,-5.78 -36.29,-15.08 -9.31,-9.3 -15.08,-22.15 -15.08,-36.29l0 -16.09 -16.09 0c-14.14,0 -26.98,-5.78 -36.29,-15.08 -9.3,-9.3 -15.08,-22.15 -15.08,-36.29l0 -151.79c0,-14.14 5.78,-26.98 15.08,-36.29 9.31,-9.3 22.15,-15.08 36.29,-15.08l151.79 0c14.14,0 26.98,5.78 36.29,15.08 9.31,9.31 15.08,22.15 15.08,36.29l0 16.09zm16.09 21.79l-26.98 0 -124.81 0c-8.12,0 -15.52,3.33 -20.88,8.7 -5.37,5.37 -8.7,12.76 -8.7,20.89l0 124.81 0 26.98c0,8.12 3.33,15.52 8.7,20.89 5.37,5.37 12.76,8.7 20.88,8.7l151.79 0c8.13,0 15.52,-3.33 20.89,-8.7 5.37,-5.37 8.7,-12.76 8.7,-20.89l0 -151.79c0,-8.12 -3.33,-15.52 -8.7,-20.89 -5.37,-5.37 -12.76,-8.7 -20.89,-8.7z"/></g></svg>